<svg xmlns="http://www.w3.org/2000/svg" width="1160" height="420" viewBox="0 0 1160 420"><defs><marker id="arrow" viewBox="0 0 10 10" refX="9" refY="5" markerWidth="8" markerHeight="8" orient="auto-start-reverse"><path d="M 0 0 L 10 5 L 0 10 z" fill="#64748B"/></marker></defs><rect x="0" y="0" width="100%" height="100%" fill="#FFFFFF"/><text x="40" y="56" font-size="30" font-weight="700" fill="#111827">World Model 为什么不是普通预测器</text><text x="40" y="96" font-size="18" fill="#4B5563">step-by-step 理解路径</text><line x1="274" y1="208.0" x2="296" y2="208.0" stroke="#64748B" stroke-width="4" marker-end="url(#arrow)"/><line x1="546" y1="208.0" x2="568" y2="208.0" stroke="#64748B" stroke-width="4" marker-end="url(#arrow)"/><line x1="818" y1="208.0" x2="840" y2="208.0" stroke="#64748B" stroke-width="4" marker-end="url(#arrow)"/><rect x="34" y="162" width="230" height="92" rx="18" fill="#E8F0FF" stroke="#9AA4B2" stroke-width="2"/><text x="149.0" y="200" text-anchor="middle" font-size="24" font-weight="700" fill="#1F2937">步骤 1</text><text x="149.0" y="230" text-anchor="middle" font-size="18" fill="#374151">观察输入编码成状态</text><rect x="306" y="162" width="230" height="92" rx="18" fill="#EEF8F1" stroke="#9AA4B2" stroke-width="2"/><text x="421.0" y="200" text-anchor="middle" font-size="24" font-weight="700" fill="#1F2937">步骤 2</text><text x="421.0" y="230" text-anchor="middle" font-size="18" fill="#374151">在内部模拟动作后的未来</text><rect x="578" y="162" width="230" height="92" rx="18" fill="#FFF4DD" stroke="#9AA4B2" stroke-width="2"/><text x="693.0" y="200" text-anchor="middle" font-size="24" font-weight="700" fill="#1F2937">步骤 3</text><text x="693.0" y="230" text-anchor="middle" font-size="18" fill="#374151">比较多步轨迹的长期收益</text><rect x="850" y="162" width="230" height="92" rx="18" fill="#FCECF4" stroke="#9AA4B2" stroke-width="2"/><text x="965.0" y="200" text-anchor="middle" font-size="24" font-weight="700" fill="#1F2937">步骤 4</text><text x="965.0" y="230" text-anchor="middle" font-size="18" fill="#374151">选择累计价值更高的动作</text></svg>