<svg xmlns="http://www.w3.org/2000/svg" width="1180" height="360" viewBox="0 0 1180 360"><defs><marker id="arrow" viewBox="0 0 10 10" refX="9" refY="5" markerWidth="8" markerHeight="8" orient="auto-start-reverse"><path d="M 0 0 L 10 5 L 0 10 z" fill="#64748B"/></marker></defs><rect x="0" y="0" width="100%" height="100%" fill="#FFFFFF"/><text x="40" y="42" font-size="24" font-weight="700" fill="#111827">半结构提示更稳</text><text x="40" y="74" font-size="14" fill="#6B7280">MemRerank: Preference Memory for Personalized Product Reranking</text><line x1="195.0" y1="200" x2="455.0" y2="212" stroke="#94A3B8" stroke-width="3.2" marker-end="url(#arrow)"/><text x="325.0" y="198.0" text-anchor="middle" font-size="12" font-weight="600" fill="#64748B">v1</text><line x1="195.0" y1="274" x2="455.0" y2="262" stroke="#94A3B8" stroke-width="3.2" marker-end="url(#arrow)"/><text x="325.0" y="260.0" text-anchor="middle" font-size="12" font-weight="600" fill="#64748B">v2</text><line x1="270" y1="237.0" x2="680" y2="237.0" stroke="#94A3B8" stroke-width="3.2" marker-end="url(#arrow)"/><text x="475.0" y="229.0" text-anchor="middle" font-size="12" font-weight="600" fill="#64748B">v3</text><rect x="120" y="200" width="150" height="74" rx="20" fill="#E8F0FF" stroke="#2563EB" stroke-width="2"/><text x="195.0" y="230" text-anchor="middle" font-size="18" font-weight="700" fill="#111827">历史行为</text><rect x="380" y="138" width="150" height="74" rx="20" fill="#EEF8F1" stroke="#059669" stroke-width="2"/><text x="455.0" y="168" text-anchor="middle" font-size="18" font-weight="700" fill="#111827">固定清单</text><rect x="380" y="262" width="150" height="74" rx="20" fill="#EEF8F1" stroke="#059669" stroke-width="2"/><text x="455.0" y="292" text-anchor="middle" font-size="18" font-weight="700" fill="#111827">自由总结</text><rect x="680" y="200" width="150" height="74" rx="20" fill="#EEF8F1" stroke="#059669" stroke-width="2"/><text x="755.0" y="230" text-anchor="middle" font-size="18" font-weight="700" fill="#111827">半结构</text></svg>