<svg xmlns="http://www.w3.org/2000/svg" width="1180" height="360" viewBox="0 0 1180 360"><defs><marker id="arrow" viewBox="0 0 10 10" refX="9" refY="5" markerWidth="8" markerHeight="8" orient="auto-start-reverse"><path d="M 0 0 L 10 5 L 0 10 z" fill="#64748B"/></marker></defs><rect x="0" y="0" width="100%" height="100%" fill="#FFFFFF"/><text x="40" y="42" font-size="24" font-weight="700" fill="#111827">重排结果反训偏好记忆</text><text x="40" y="74" font-size="14" fill="#6B7280">MemRerank: Preference Memory for Personalized Product Reranking</text><line x1="374.0" y1="211.0" x2="418.0" y2="211.0" stroke="#94A3B8" stroke-width="3.2" marker-end="url(#arrow)"/><line x1="568.0" y1="211.0" x2="612.0" y2="211.0" stroke="#94A3B8" stroke-width="3.2" marker-end="url(#arrow)"/><text x="590.0" y="203.0" text-anchor="middle" font-size="12" font-weight="600" fill="#64748B">记忆</text><line x1="762.0" y1="211.0" x2="806.0" y2="211.0" stroke="#94A3B8" stroke-width="3.2" marker-end="url(#arrow)"/><text x="784.0" y="203.0" text-anchor="middle" font-size="12" font-weight="600" fill="#64748B">选对否</text><rect x="224.0" y="174" width="150" height="74" rx="20" fill="#E8F0FF" stroke="#2563EB" stroke-width="2"/><text x="299.0" y="204" text-anchor="middle" font-size="18" font-weight="700" fill="#111827">历史行为</text><rect x="418.0" y="174" width="150" height="74" rx="20" fill="#EEF8F1" stroke="#059669" stroke-width="2"/><text x="493.0" y="204" text-anchor="middle" font-size="18" font-weight="700" fill="#111827">生成记忆</text><rect x="612.0" y="174" width="150" height="74" rx="20" fill="#EEF8F1" stroke="#059669" stroke-width="2"/><text x="687.0" y="204" text-anchor="middle" font-size="18" font-weight="700" fill="#111827">插入重排</text><rect x="806.0" y="174" width="150" height="74" rx="20" fill="#FFF4DD" stroke="#D97706" stroke-width="2"/><text x="881.0" y="204" text-anchor="middle" font-size="18" font-weight="700" fill="#111827">奖励反馈</text></svg>