<svg xmlns="http://www.w3.org/2000/svg" width="1180" height="360" viewBox="0 0 1180 360"><defs><marker id="arrow" viewBox="0 0 10 10" refX="9" refY="5" markerWidth="8" markerHeight="8" orient="auto-start-reverse"><path d="M 0 0 L 10 5 L 0 10 z" fill="#64748B"/></marker></defs><rect x="0" y="0" width="100%" height="100%" fill="#FFFFFF"/><text x="40" y="42" font-size="24" font-weight="700" fill="#111827">改价两次预测算弹性</text><text x="40" y="74" font-size="14" fill="#6B7280">Monodense Deep Neural Model for Determining Item Price Elasticity</text><line x1="195.0" y1="200" x2="455.0" y2="212" stroke="#94A3B8" stroke-width="3.2" marker-end="url(#arrow)"/><text x="325.0" y="198.0" text-anchor="middle" font-size="12" font-weight="600" fill="#64748B">价格p</text><line x1="195.0" y1="274" x2="455.0" y2="262" stroke="#94A3B8" stroke-width="3.2" marker-end="url(#arrow)"/><text x="325.0" y="260.0" text-anchor="middle" font-size="12" font-weight="600" fill="#64748B">价格+p</text><line x1="455.0" y1="212" x2="755.0" y2="200" stroke="#94A3B8" stroke-width="3.2" marker-end="url(#arrow)"/><rect x="120" y="200" width="150" height="74" rx="20" fill="#F3F4F6" stroke="#6B7280" stroke-width="2"/><text x="195.0" y="230" text-anchor="middle" font-size="18" font-weight="700" fill="#111827">固定场景</text><rect x="380" y="138" width="150" height="74" rx="20" fill="#E8F0FF" stroke="#2563EB" stroke-width="2"/><text x="455.0" y="168" text-anchor="middle" font-size="18" font-weight="700" fill="#111827">原价输入</text><rect x="380" y="262" width="150" height="74" rx="20" fill="#E8F0FF" stroke="#2563EB" stroke-width="2"/><text x="455.0" y="292" text-anchor="middle" font-size="18" font-weight="700" fill="#111827">改价输入</text><rect x="680" y="200" width="150" height="74" rx="20" fill="#EEF8F1" stroke="#059669" stroke-width="2"/><text x="755.0" y="230" text-anchor="middle" font-size="18" font-weight="700" fill="#111827">结果输出</text></svg>