<svg height="960" width="1440" xmlns="http://www.w3.org/2000/svg" viewBox="0 0 900 580" font-family="Arial, Helvetica, sans-serif">
  <defs>
    <marker id="arrow" markerWidth="10" markerHeight="7" refX="10" refY="3.5" orient="auto">
      <polygon points="0 0, 10 3.5, 0 7" fill="#555"/>
    </marker>
    <marker id="arrowGreen" markerWidth="10" markerHeight="7" refX="10" refY="3.5" orient="auto">
      <polygon points="0 0, 10 3.5, 0 7" fill="#2e7d32"/>
    </marker>
    <marker id="arrowRed" markerWidth="10" markerHeight="7" refX="10" refY="3.5" orient="auto">
      <polygon points="0 0, 10 3.5, 0 7" fill="#c62828"/>
    </marker>
    <linearGradient id="bg" x1="0" y1="0" x2="0" y2="1">
      <stop offset="0%" stop-color="#f5f7fa"/>
      <stop offset="100%" stop-color="#e8ecf1"/>
    </linearGradient>
  </defs>

  <!-- Background -->
  <rect width="900" height="580" fill="url(#bg)" rx="18"/>

  <!-- Title -->
  <text x="450" y="38" text-anchor="middle" font-size="20" font-weight="bold" fill="#1a237e">级联交叉编码器 → 分级相关性标签</text>
  <text x="450" y="60" text-anchor="middle" font-size="13" fill="#666">小模型有把握就直接出结果，没把握才交给大模型</text>

  <!-- Input: Query-Item Pair -->
  <rect x="30" y="90" width="180" height="80" rx="14" fill="#fff" stroke="#5c6bc0" stroke-width="2.5"/>
  <text x="120" y="120" text-anchor="middle" font-size="14" font-weight="bold" fill="#283593">Query-Item 对</text>
  <text x="120" y="142" text-anchor="middle" font-size="11" fill="#666">"organic baby formula"</text>
  <text x="120" y="157" text-anchor="middle" font-size="11" fill="#666">× 有机婴儿奶粉</text>

  <!-- Arrow from input to Stage 1 -->
  <line x1="210" y1="130" x2="268" y2="130" stroke="#555" stroke-width="2" marker-end="url(#arrow)"/>

  <!-- Stage 1: Gemma 1B -->
  <rect x="275" y="85" width="155" height="90" rx="14" fill="#e3f2fd" stroke="#1565c0" stroke-width="2"/>
  <text x="352" y="112" text-anchor="middle" font-size="15" font-weight="bold" fill="#1565c0">Gemma 1B</text>
  <text x="352" y="132" text-anchor="middle" font-size="11" fill="#555">交叉编码器</text>
  <text x="352" y="150" text-anchor="middle" font-size="11" fill="#555">输出 5 类概率</text>
  <text x="352" y="167" text-anchor="middle" font-size="10" fill="#888">⚡ 最快</text>

  <!-- Confidence check 1 -->
  <path d="M 430 130 L 470 130" stroke="#555" stroke-width="2" marker-end="url(#arrow)"/>

  <!-- Diamond 1 -->
  <polygon points="505,130 530,105 555,130 530,155" fill="#fff3e0" stroke="#e65100" stroke-width="2"/>
  <text x="530" y="134" text-anchor="middle" font-size="11" font-weight="bold" fill="#e65100">置信?</text>

  <!-- Yes arrow down from diamond 1 -->
  <line x1="530" y1="155" x2="530" y2="210" stroke="#2e7d32" stroke-width="2" stroke-dasharray="5,3" marker-end="url(#arrowGreen)"/>
  <text x="548" y="188" font-size="10" fill="#2e7d32" font-weight="bold">✓ 是</text>

  <!-- No arrow right from diamond 1 -->
  <line x1="555" y1="130" x2="598" y2="130" stroke="#c62828" stroke-width="1.8" marker-end="url(#arrowRed)"/>
  <text x="575" y="122" font-size="10" fill="#c62828" font-weight="bold">✗ 否</text>

  <!-- Stage 2: Gemma 2B -->
  <rect x="605" y="85" width="155" height="90" rx="14" fill="#e8f5e9" stroke="#2e7d32" stroke-width="2"/>
  <text x="682" y="112" text-anchor="middle" font-size="15" font-weight="bold" fill="#2e7d32">Gemma 2B</text>
  <text x="682" y="132" text-anchor="middle" font-size="11" fill="#555">交叉编码器</text>
  <text x="682" y="150" text-anchor="middle" font-size="11" fill="#555">输出 5 类概率</text>
  <text x="682" y="167" text-anchor="middle" font-size="10" fill="#888">⚡⚡ 中等</text>

  <!-- Arrow from Stage 2 to diamond 2 -->
  <line x1="682" y1="175" x2="682" y2="215" stroke="#555" stroke-width="2" marker-end="url(#arrow)"/>

  <!-- Diamond 2 -->
  <polygon points="682,250 707,225 732,250 707,275" fill="#fff3e0" stroke="#e65100" stroke-width="2"/>
  <text x="707" y="254" text-anchor="middle" font-size="11" font-weight="bold" fill="#e65100">置信?</text>

  <!-- Yes arrow down from diamond 2 -->
  <line x1="707" y1="275" x2="707" y2="330" stroke="#2e7d32" stroke-width="2" stroke-dasharray="5,3" marker-end="url(#arrowGreen)"/>
  <text x="725" y="308" font-size="10" fill="#2e7d32" font-weight="bold">✓ 是</text>

  <!-- No arrow left from diamond 2 -->
  <line x1="682" y1="250" x2="595" y2="310" stroke="#c62828" stroke-width="1.8" marker-end="url(#arrowRed)"/>
  <text x="620" y="288" font-size="10" fill="#c62828" font-weight="bold">✗ 否</text>

  <!-- Stage 3: LLaMA 8B -->
  <rect x="440" y="300" width="155" height="90" rx="14" fill="#fce4ec" stroke="#c62828" stroke-width="2"/>
  <text x="517" y="327" text-anchor="middle" font-size="15" font-weight="bold" fill="#c62828">LLaMA-3 8B</text>
  <text x="517" y="347" text-anchor="middle" font-size="11" fill="#555">交叉编码器</text>
  <text x="517" y="365" text-anchor="middle" font-size="11" fill="#555">输出 5 类概率</text>
  <text x="517" y="382" text-anchor="middle" font-size="10" fill="#888">⚡⚡⚡ 最强</text>

  <!-- Early accept box -->
  <rect x="440" y="215" width="140" height="42" rx="10" fill="#c8e6c9" stroke="#2e7d32" stroke-width="2"/>
  <text x="510" y="234" text-anchor="middle" font-size="12" font-weight="bold" fill="#2e7d32">提前接受标签</text>
  <text x="510" y="250" text-anchor="middle" font-size="10" fill="#555">高置信 → 省算力</text>

  <!-- Late accept from stage 2 -->
  <rect x="640" y="335" width="130" height="42" rx="10" fill="#c8e6c9" stroke="#2e7d32" stroke-width="2"/>
  <text x="705" y="355" text-anchor="middle" font-size="12" font-weight="bold" fill="#2e7d32">提前接受标签</text>
  <text x="705" y="370" text-anchor="middle" font-size="10" fill="#555">中置信</text>

  <!-- Fallback: majority vote -->
  <line x1="517" y1="390" x2="517" y2="425" stroke="#555" stroke-width="2" marker-end="url(#arrow)"/>
  <rect x="420" y="428" width="195" height="38" rx="10" fill="#fff9c4" stroke="#f9a825" stroke-width="2"/>
  <text x="517" y="452" text-anchor="middle" font-size="12" font-weight="bold" fill="#e65100">三级多数投票 (平票→最后级)</text>

  <!-- All paths converge to mapping -->
  <line x1="510" y1="256" x2="450" y2="500" stroke="#555" stroke-width="1.5" stroke-dasharray="4,3"/>
  <line x1="705" y1="377" x2="500" y2="500" stroke="#555" stroke-width="1.5" stroke-dasharray="4,3"/>
  <line x1="517" y1="466" x2="450" y2="500" stroke="#555" stroke-width="1.8" marker-end="url(#arrow)"/>

  <!-- Final Mapping Box -->
  <rect x="60" y="485" width="820" height="80" rx="16" fill="#fff" stroke="#5c6bc0" stroke-width="2.5"/>
  
  <!-- Mapping formula -->
  <text x="450" y="510" text-anchor="middle" font-size="15" font-weight="bold" fill="#283593">离散标签 → 连续分数：rel-score = (Rel − 2) / 2</text>

  <!-- Scale visualization -->
  <!-- Scale line -->
  <line x1="100" y1="545" x2="800" y2="545" stroke="#999" stroke-width="2"/>

  <!-- Rel=0 -->
  <circle cx="140" cy="545" r="8" fill="#d32f2f"/>
  <text x="140" y="538" text-anchor="middle" font-size="10" font-weight="bold" fill="#d32f2f">Rel=0</text>
  <text x="140" y="565" text-anchor="middle" font-size="9" fill="#888">-1.0</text>

  <!-- Rel=1 -->
  <circle cx="290" cy="545" r="8" fill="#ef6c00"/>
  <text x="290" y="538" text-anchor="middle" font-size="10" font-weight="bold" fill="#ef6c00">Rel=1</text>
  <text x="290" y="565" text-anchor="middle" font-size="9" fill="#888">-0.5</text>

  <!-- Rel=2 -->
  <circle cx="440" cy="545" r="8" fill="#fbc02d"/>
  <text x="440" y="538" text-anchor="middle" font-size="10" font-weight="bold" fill="#9e9d24">Rel=2</text>
  <text x="440" y="565" text-anchor="middle" font-size="9" fill="#888">0.0</text>

  <!-- Rel=3 -->
  <circle cx="590" cy="545" r="8" fill="#66bb6a"/>
  <text x="590" y="538" text-anchor="middle" font-size="10" font-weight="bold" fill="#2e7d32">Rel=3</text>
  <text x="590" y="565" text-anchor="middle" font-size="9" fill="#888">0.5</text>

  <!-- Rel=4 -->
  <circle cx="740" cy="545" r="8" fill="#1b5e20"/>
  <text x="740" y="538" text-anchor="middle" font-size="10" font-weight="bold" fill="#1b5e20">Rel=4</text>
  <text x="740" y="565" text-anchor="middle" font-size="9" fill="#888">1.0</text>

  <!-- Negative zone label -->
  <text x="215" y="557" text-anchor="middle" font-size="9" fill="#c62828">← 负样本</text>
  <!-- Positive zone label -->
  <text x="665" y="557" text-anchor="middle" font-size="9" fill="#2e7d32">正样本 →</text>

  <!-- Example callout top-right -->
  <rect x="30" y="300" width="250" height="100" rx="12" fill="#fffde7" stroke="#f9a825" stroke-width="1.5"/>
  <text x="45" y="320" font-size="11" font-weight="bold" fill="#e65100">💡 例：有机婴儿奶粉</text>
  <text x="45" y="338" font-size="10" fill="#555">Gemma-1B: P(Rel=4) = 0.92 &gt; 阈值0.85</text>
  <text x="45" y="354" font-size="10" fill="#2e7d32" font-weight="bold">→ 直接输出 Rel=4, score=1.0 ✓</text>
  <text x="45" y="374" font-size="11" font-weight="bold" fill="#e65100">💡 例：成人蛋白粉</text>
  <text x="45" y="392" font-size="10" fill="#555">三级都不确定→LLaMA判定Rel=1</text>
  <text x="45" y="406" font-size="10" fill="#c62828" font-weight="bold">→ score=-0.5, 归为负样本 ✗</text>

  <!-- Core idea badge -->
  <rect x="30" y="440" width="250" height="35" rx="8" fill="#e8eaf6" stroke="#3f51b5" stroke-width="1.5"/>
  <text x="155" y="462" text-anchor="middle" font-size="12" font-weight="bold" fill="#283593">🎯 核心：小模型先筛，大模型兜底</text>
</svg>